<svg xmlns="http://www.w3.org/2000/svg" xmlns:xlink="http://www.w3.org/1999/xlink" width="64" height="64" viewBox="0 0 64 64" id="music">
  <defs>
    <path id="path-1" d="M.06 64V.04H64V64z"></path>
  </defs>
  <g id="Page-1" fill="none" fill-rule="evenodd" stroke="none" stroke-width="1">
    <g id="music">
      <g id="Group-3">
        <mask id="mask-2" fill="#fff">
          <use xlink:href="#path-1"></use>
        </mask>
        <path id="Fill-1" fill="#73BBA3" d="M64 32c0 17.673-14.327 32-32 32C14.327 64 0 49.673 0 32 0 14.327 14.327 0 32 0c17.673 0 32 14.327 32 32" mask="url(#mask-2)"></path>
      </g>
      <path id="Fill-4" fill="#629986" d="M17.425 51.066c-1.417 0-2.732-.553-3.574-1.646-1.593-2.072-.885-5.293 1.585-7.196a6.442 6.442 0 0 1 2.744-1.226l-.024-.011s.069-.007.173-.024l.124-.025c.802-.15 3.547-1.527 3.547-4.5V23.444c0-1.177.489-2.425 1.667-2.784l19.2-3.628a2.11 2.11 0 0 1 .623-.098c.874 0 1.51.62 1.51 1.58v22.33c0 2.906-1.237 4.766-2.487 5.73-1.167.899-2.518 1.343-3.787 1.343-1.418 0-2.733-.555-3.576-1.648-1.595-2.072-.885-5.293 1.586-7.196a6.418 6.418 0 0 1 2.769-1.233l-.013-.004.089-.011.209-.038c.805-.152 3.21-.834 3.21-3.804v-8.418l-19 3.629v13.337c0 4.313-1.782 6.417-2.787 7.192-1.167.899-2.518 1.343-3.788 1.343"></path>
      <path id="Fill-5" fill="#FFFFFE" d="M13.851 47.42c1.596 2.071 4.892 2.206 7.362.303C22.218 46.948 24 44.844 24 40.531V27.194l19-3.629v8.418c0 2.97-2.405 3.652-3.21 3.804l-.209.038-.089.011.013.004a6.418 6.418 0 0 0-2.769 1.233c-2.471 1.903-3.181 5.124-1.585 7.196 1.595 2.071 4.891 2.208 7.362.305C43.763 43.61 45 41.75 45 38.844v-22.33c0-1.177-.956-1.843-2.133-1.482l-19.2 3.628C22.489 19.019 22 20.267 22 21.444v12.994c0 2.973-2.745 4.35-3.547 4.5l-.124.025c-.104.017-.173.024-.173.024l.024.011a6.442 6.442 0 0 0-2.744 1.226c-2.47 1.903-3.178 5.124-1.585 7.196"></path>
    </g>
  </g>
</svg>
