<?xml version="1.0" encoding="UTF-8"?>
<svg viewBox="0 0 128 128" xmlns="http://www.w3.org/2000/svg">
 <defs>
  <linearGradient id="a">
   <stop stop-color="#dbdbdb" offset="0"/>
   <stop stop-color="#757575" offset="1"/>
  </linearGradient>
 </defs>
 <path d="m29.094 11.236c-3.1838 0-5.7188 2.5662-5.7188 5.75v94.029c0 3.1838 2.535 5.75 5.7188 5.75h69.812c3.1838 0 5.7188-2.5662 5.7188-5.75v-70.654h-21.031c-4.3061 0-8.0625-3.1411-8.0625-7.3125v-21.812zm50.438 0v21.812c0 1.7141 1.632 3.3125 4.0625 3.3125h21.031z" fill="url(#a)"/>
 <path d="m35.924 36.397h34.491a1.7673 1.7673 0 0 1 1.7673 1.7673v2.6509a1.7673 1.7673 0 0 1 -1.7673 1.7673h-34.491a1.7673 1.7673 0 0 1 -1.7673 -1.7673v-2.6509a1.7673 1.7673 0 0 1 1.7673 -1.7673" fill="#4d4d4d"/>
 <path d="m35.924 65.226h56.152a1.7673 1.7673 0 0 1 1.7673 1.7673v2.6509a1.7673 1.7673 0 0 1 -1.7673 1.7673h-56.152a1.7673 1.7673 0 0 1 -1.7673 -1.7673v-2.6509a1.7673 1.7673 0 0 1 1.7673 -1.7673" fill="#4d4d4d"/>
 <path d="m35.924 50.811h34.491a1.7673 1.7673 0 0 1 1.7673 1.7673v2.6509a1.7673 1.7673 0 0 1 -1.7673 1.7673h-34.491a1.7673 1.7673 0 0 1 -1.7673 -1.7673v-2.6509a1.7673 1.7673 0 0 1 1.7673 -1.7673" fill="#4d4d4d"/>
 <path d="m35.924 79.64h56.152a1.7673 1.7673 0 0 1 1.7673 1.7673v2.6509a1.7673 1.7673 0 0 1 -1.7673 1.7673h-56.152a1.7673 1.7673 0 0 1 -1.7673 -1.7673v-2.6509a1.7673 1.7673 0 0 1 1.7673 -1.7673" fill="#4d4d4d"/>
 <path d="m35.924 94.054h56.152a1.7673 1.7673 0 0 1 1.7673 1.7673v2.6509a1.7673 1.7673 0 0 1 -1.7673 1.7673h-56.152a1.7673 1.7673 0 0 1 -1.7673 -1.7673v-2.6509a1.7673 1.7673 0 0 1 1.7673 -1.7673" fill="#4d4d4d"/>
</svg>
